<?xml version="1.0" encoding="UTF-8" standalone="no"?><!DOCTYPE svg PUBLIC "-//W3C//DTD SVG 1.1//EN" "http://www.w3.org/Graphics/SVG/1.1/DTD/svg11.dtd"><svg width="100%" height="100%" viewBox="0 0 133 30" version="1.1" xmlns="http://www.w3.org/2000/svg" xmlns:xlink="http://www.w3.org/1999/xlink" xml:space="preserve" xmlns:serif="http://www.serif.com/" style="fill-rule:evenodd;clip-rule:evenodd;stroke-linejoin:round;stroke-miterlimit:2;"><path d="M13.131,4.736l0,-4.736c-6.787,0.819 -12.203,6.081 -13.115,12.778l1.992,0c6.132,0 11.122,-3.607 11.122,-8.042m0.003,10.04l0,-2.032c-0.23,0.204 -0.467,0.4 -0.711,0.586c-2.803,2.142 -6.5,3.319 -10.411,3.319l-2.01,0c0.928,7.251 7.157,12.908 14.789,13.014l-0.003,0c3.389,0.051 6.7,-1.031 9.404,-3.074c-6.167,-0.406 -11.06,-5.549 -11.06,-11.814l0.001,0Z" style="fill:#1f2328;fill-rule:nonzero;"/><path d="M24.976,22.746l2.79,0c1.495,-2.314 2.307,-5.005 2.342,-7.76c0.106,-7.621 -5.618,-13.979 -13.1,-14.964l0,14.751c0.005,4.37 3.6,7.964 7.969,7.969l-0.001,0.003Z" style="fill:#1f2328;fill-rule:nonzero;"/><path d="M62.032,10.857c-1.02,-0.591 -2.244,-0.886 -3.671,-0.885c-1.427,0 -2.654,0.294 -3.681,0.883c-1.019,0.583 -1.806,1.403 -2.361,2.458c-0.549,1.049 -0.824,2.273 -0.824,3.671c0,1.397 0.274,2.615 0.822,3.671c0.556,1.049 1.343,1.869 2.361,2.458c1.028,0.583 2.255,0.875 3.681,0.875c1.428,0 2.652,-0.292 3.672,-0.875c1.009,-0.573 1.83,-1.427 2.361,-2.458c0.555,-1.056 0.831,-2.279 0.831,-3.671c0,-1.392 -0.278,-2.622 -0.831,-3.671c-0.528,-1.034 -1.35,-1.889 -2.361,-2.458m-1.504,8.064c-0.189,0.567 -0.463,1.009 -0.822,1.326c-0.363,0.321 -0.835,0.492 -1.319,0.479c-0.519,0 -0.99,-0.16 -1.361,-0.479c-0.367,-0.319 -0.647,-0.762 -0.84,-1.326c-0.189,-0.566 -0.284,-1.22 -0.285,-1.964c0,-0.744 0.096,-1.415 0.285,-1.982c0.194,-0.567 0.475,-1.009 0.84,-1.326c0.37,-0.319 0.824,-0.478 1.361,-0.478c0.538,0 0.958,0.158 1.319,0.478c0.36,0.319 0.634,0.762 0.822,1.326c0.194,0.566 0.292,1.226 0.292,1.982c0,0.756 -0.097,1.397 -0.292,1.964m-22.085,4.811l4.379,0l0,-7.281l7.201,0l0,-3.564l-7.203,0l0,-3.714l7.989,0l0,-3.556l-12.368,0l0.001,18.114Zm36.507,-13.769c-0.709,-0.012 -1.4,0.223 -1.954,0.664c-0.56,0.435 -0.964,1.102 -1.212,2l-0.142,0l0,-2.476l-4.203,0l0,13.586l4.326,0l0,-7.378c0,-0.543 0.115,-1.014 0.344,-1.414c0.236,-0.407 0.558,-0.723 0.965,-0.947c0.412,-0.23 0.875,-0.344 1.389,-0.344c0.26,0 0.555,0.02 0.883,0.061c0.337,0.042 0.608,0.097 0.814,0.167l0,-3.758c-0.194,-0.055 -0.392,-0.093 -0.593,-0.114c-0.205,-0.03 -0.412,-0.044 -0.619,-0.043l0.001,-0.003Zm40.914,0.572c-0.691,-0.378 -1.495,-0.567 -2.414,-0.567c-1.027,0 -1.864,0.213 -2.513,0.639c-0.634,0.403 -1.137,0.98 -1.45,1.663l-0.178,-0l0,-2.125l-2.017,0l0,13.586l2.087,0l0,-8.174c0,-0.791 0.15,-1.463 0.451,-2.017c0.301,-0.556 0.711,-0.977 1.231,-1.265c0.548,-0.296 1.163,-0.445 1.786,-0.433c0.968,0 1.729,0.301 2.283,0.903c0.555,0.594 0.831,1.425 0.831,2.492l0,8.493l2.089,0l0,-8.635c0,-1.155 -0.192,-2.11 -0.575,-2.865c-0.382,-0.761 -0.919,-1.327 -1.611,-1.699l-0.001,0.004Zm-24.697,-0.389l-4.901,0l-3.819,4.865l-0.194,0l0,-9.394l-4.328,0l0,18.117l4.326,0l0,-4.079l0.894,-1.082l3.176,5.154l4.997,0.047l-4.956,-7.731l4.804,-5.897Zm40.39,2.053c-0.352,-0.644 -0.797,-1.126 -1.335,-1.444c-0.531,-0.318 -1.083,-0.526 -1.656,-0.626c-0.496,-0.099 -0.999,-0.152 -1.504,-0.16c-0.684,-0 -1.38,0.094 -2.087,0.283c-0.71,0.185 -1.373,0.516 -1.947,0.972c-0.59,0.46 -1.062,1.103 -1.415,1.929l1.982,0.708c0.231,-0.495 0.629,-0.961 1.194,-1.397c0.568,-0.437 1.349,-0.656 2.344,-0.656c0.996,0 1.678,0.242 2.15,0.726c0.478,0.483 0.717,1.162 0.717,2.035l0,0.071c0,0.336 -0.121,0.572 -0.362,0.708c-0.236,0.135 -0.613,0.232 -1.132,0.292c-0.67,0.071 -1.339,0.15 -2.007,0.237c-0.631,0.083 -1.26,0.196 -1.885,0.338c-0.592,0.127 -1.164,0.335 -1.699,0.619c-0.513,0.278 -0.923,0.661 -1.229,1.15c-0.307,0.483 -0.461,1.114 -0.461,1.893c0,0.883 0.207,1.638 0.621,2.264c0.412,0.62 0.969,1.096 1.671,1.426c0.702,0.324 1.483,0.486 2.343,0.486c0.791,0 1.46,-0.118 2.008,-0.354c0.548,-0.236 0.988,-0.522 1.319,-0.858c0.329,-0.337 0.565,-0.653 0.708,-0.947l0.106,0l0,1.84l2.089,0l0,-8.95c0,-1.08 -0.177,-1.941 -0.532,-2.583l-0.001,-0.003Zm-1.556,6.614c0,0.568 -0.148,1.107 -0.443,1.618c-0.307,0.529 -0.754,0.964 -1.292,1.256c-0.566,0.324 -1.262,0.486 -2.088,0.486c-0.826,0 -1.519,-0.183 -2.061,-0.549c-0.537,-0.371 -0.806,-0.92 -0.806,-1.646c0,-0.531 0.142,-0.95 0.426,-1.256c0.289,-0.313 0.666,-0.546 1.132,-0.699c0.472,-0.159 0.979,-0.274 1.521,-0.344c0.224,-0.03 0.516,-0.065 0.875,-0.106c0.366,-0.048 0.741,-0.101 1.125,-0.16c0.389,-0.065 0.731,-0.138 1.025,-0.221c0.301,-0.088 0.496,-0.185 0.585,-0.292l0,1.911Zm-28.388,-8.057c-0.531,-0.319 -1.083,-0.528 -1.656,-0.628c-0.495,-0.099 -0.998,-0.152 -1.503,-0.16c-0.685,0 -1.381,0.094 -2.089,0.283c-0.709,0.185 -1.372,0.517 -1.946,0.972c-0.591,0.46 -1.063,1.103 -1.417,1.929l1.983,0.708c0.23,-0.495 0.628,-0.961 1.194,-1.397c0.567,-0.437 1.348,-0.656 2.344,-0.656c0.996,0 1.676,0.242 2.149,0.726c0.478,0.483 0.717,1.162 0.717,2.035l0,0.071c0,0.336 -0.12,0.572 -0.361,0.708c-0.237,0.135 -0.615,0.232 -1.133,0.292c-0.514,0.053 -1.183,0.132 -2.007,0.237c-0.631,0.083 -1.259,0.196 -1.883,0.338c-0.592,0.127 -1.164,0.335 -1.699,0.619c-0.514,0.278 -0.924,0.661 -1.231,1.15c-0.307,0.483 -0.461,1.114 -0.461,1.893c0,0.883 0.207,1.638 0.621,2.264c0.412,0.62 0.969,1.096 1.672,1.426c0.737,0.331 1.537,0.496 2.344,0.486c0.792,0 1.461,-0.118 2.008,-0.354c0.548,-0.236 0.988,-0.522 1.319,-0.858c0.329,-0.337 0.565,-0.653 0.708,-0.947l0.106,0l0,1.84l2.088,0l0,-8.95c0,-1.08 -0.177,-1.941 -0.531,-2.583c-0.354,-0.643 -0.8,-1.123 -1.337,-1.442l-0.001,-0.004Zm-0.221,8.057c0,0.568 -0.148,1.107 -0.443,1.618c-0.307,0.529 -0.754,0.964 -1.292,1.256c-0.565,0.324 -1.261,0.486 -2.087,0.486c-0.826,0 -1.519,-0.183 -2.06,-0.549c-0.537,-0.371 -0.806,-0.92 -0.806,-1.646c0,-0.531 0.142,-0.95 0.425,-1.256c0.289,-0.313 0.666,-0.546 1.132,-0.699c0.472,-0.159 0.979,-0.274 1.521,-0.344c0.225,-0.03 0.517,-0.065 0.876,-0.106c0.366,-0.048 0.741,-0.101 1.125,-0.16c0.389,-0.065 0.73,-0.138 1.024,-0.221c0.302,-0.088 0.497,-0.185 0.585,-0.292l0,1.911Z" style="fill:#1f2328;fill-rule:nonzero;"/></svg>